<?xml version="1.0" encoding="UTF-8"?>
<svg id="Camada_1" data-name="Camada 1" xmlns="http://www.w3.org/2000/svg" viewBox="0 0 976.1 1011.28">
  <defs>
    <style>
      .cls-1 {
        fill: #756afc;
      }

      .cls-2 {
        fill: #d87af5;
      }
    </style>
  </defs>
  <path class="cls-2" d="m203.86,480c-7.57,13.28-15.37,26.44-22.67,39.86-12.54,23.06-28.15,44.28-39.9,67.84-12.23,24.51-23.39,49-20.99,77.53,1.36,16.14,6.12,30.7,15.3,44.01,15.05,21.83,29.31,44.22,44.98,65.58,7.09,9.67,13.21,19.57,18.06,30.44,5.44,12.2,3.89,23.8-5.23,32.84-8.17,8.1-15.53,17.24-25.77,23.29-14.65,8.65-31.23,9.49-41.24.37-7.47-6.81-14.71-14.07-20.96-22-26.47-33.6-51.54-68.22-71.29-106.31-9.59-18.49-15.27-37.95-15.65-59.29-.45-25.25,3.23-49.59,11.6-73.15,9.07-25.54,18.99-50.83,31.96-74.71,13.56-24.96,27.26-49.86,41.63-74.36,14.36-24.49,29.55-48.51,44.59-72.6,1.98-3.17,2.51-7.52,6.56-9.25,2.23.73,3.15,2.63,3.92,4.57,5.63,14.2,11.19,28.44,16.82,42.64,7.65,19.26,15.43,38.47,22.93,57.79,1.09,2.82,2.67,4.27,5.37,4.92Z"/>
  <path class="cls-2" d="m770.99,531.17c14.69-25.39,28.84-51.11,44.27-76.04,9.21-14.88,18.86-29.61,25.65-45.61,7.4-17.44,14.28-35.45,15.17-54.81.63-13.8-4.98-26.21-10.13-38.53-6.52-15.59-16.52-29.07-26.76-42.45-8.91-11.65-16.52-24.28-25.11-36.18-4.98-6.9-9.75-13.84-14.06-21.23-8.8-15.1-8.37-30.5,2.81-43.62,7.74-9.08,16.34-17.79,26.48-23.67,15.57-9.04,34.77-4.38,48.87,9.43,9.9,9.7,17.65,21.12,25.94,32.08,21.24,28.11,40.51,57.5,56.85,88.78,13.23,25.33,18.82,52.18,15.41,80.45-3.08,25.51-10.96,49.86-20.43,73.73-17.13,43.21-39.34,83.79-63.35,123.45-16.25,26.84-32.83,53.49-49.27,80.23-.91,1.48-1.26,3.56-3.61,3.62-5.65-14.21-11.31-28.41-16.96-42.62-8.05-20.24-16.05-40.5-24.17-60.72-1.34-3.35-2.71-7.05-7.6-6.29Z"/>
  <path class="cls-2" d="m612.71,764.43c19.5-.16,39.01-.53,58.51-.42,23.39.12,46.78,1.09,70.17.88,25.59-.23,49.49-7.56,70.43-22.12,13.27-9.23,22.3-22.57,29.39-37.42,14.84-31.08,27.32-63.39,45.38-92.81,12.03-19.6,20.42-23.41,44.61-15.85,7.13,2.23,14.07,5.13,21,7.95,24.91,10.13,28.03,31.32,19.92,53.3-6.89,18.67-13.6,37.58-22.53,55.29-13.21,26.18-25.9,52.58-42.61,77.07-16.59,24.31-38.55,40.25-64.79,50.88-18.74,7.59-38.67,11.38-58.61,15.43-36.63,7.45-73.46,8.14-110.44,8.72-42.55.67-85.05-1.25-127.54-3.18.52-4.09,3.14-7.2,5.49-10.16,19.82-24.87,39.72-49.67,59.91-74.23,3.7-4.5,5.94-8.24,1.73-13.33Z"/>
  <path class="cls-2" d="m646.49,263.91c-8.27-13.9-17.04-27.48-24.76-41.75-18.35-33.95-35.02-69.14-63.51-96.37-17.55-16.77-38.59-25.54-63.08-26.06-18.21-.38-36.56.69-54.19,3.85-20.18,3.62-40.21,3.61-60.36,4.03-18.78.39-28.45-5.9-34.79-23.66-3.36-9.4-5.34-19.55-6.24-29.52-2.75-30.35,15.99-39.43,37.18-43.38,23.44-4.37,47.23-6.48,70.99-8.93C469.28-.09,490.65-.36,511.99.35c17.36.58,34.68,2.62,51.47,9.49,21.15,8.65,38.23,22,54.38,37.56,20.28,19.53,37.09,41.74,53.47,64.47,12.9,17.91,22.91,37.59,35.37,55.65,11.36,16.47,18.9,34.86,29.19,51.85,11.94,19.7,23.34,39.94,31.95,61.49-6.29.17-12.06-2.49-18.27-3.19-16.38-1.85-32.65-4.75-48.95-7.34-9.67-1.54-19.27-4.22-28.98-4.64-8.41-.37-16.53-5.07-25.13-1.78Z"/>
  <path class="cls-2" d="m355.28,247.49c-21.29,1.08-42.56.91-63.86-.11-14.75-.71-29.51-1.33-44.33.54-7.91.99-15.99,1.49-23.99,1.81-41.67,1.64-71.74,21.19-90.06,58.4-11.77,23.9-22.62,48.26-33.91,72.4-4.09,8.73-8.83,17.08-14.42,24.96-8.14,11.47-25.01,16.83-38.06,11.93-11.31-4.25-22.79-7.86-33.26-14.34-9.64-5.97-15.1-20.81-12.89-35.72,4.78-32.15,20.96-59.77,34.6-88.35,7.57-15.86,16.91-30.88,25.43-46.29,10.65-19.25,25.26-35.68,43.46-47.1,16.53-10.37,35.02-18.32,54.5-22.82,30.02-6.93,60.5-11.17,91.09-14.26,30.56-3.08,61.31-1.92,91.98-1.75,29.9.17,59.8,1.12,89.7,1.73,1.78.04,3.7-.39,4.97,1.44-4.78,1.54-8.86,3.45-12.19,7.94-16.87,22.75-35.01,44.49-53.13,66.27-5.92,7.11-13.63,13.43-15.61,23.34Z"/>
  <path class="cls-2" d="m327.68,746.62c5.96,10.28,11.63,20.86,17.91,30.81,8.58,13.59,14.91,28.29,23.45,41.9,9.93,15.83,19.22,32.08,30.41,47.06,8.7,11.64,19.52,21.37,30.9,30.35,18.36,14.47,40.43,16.2,62.48,16.72,8.09.19,16.49-.79,24.38-3.52,8.51-2.94,17.5-1.8,26.23-3.19,20.11-3.2,40.38-1.44,60.59-.57,8.73.38,15.88,4.82,19.7,12.16,8.97,17.27,13.35,35.63,9.7,55.35-2.64,14.26-13.02,19.86-25.07,24.77-18.94,7.72-39.02,7.14-58.72,9.34-29.24,3.27-58.6,4.02-88,3.19-6.44-.18-13.03.33-19.27-.45-16.08-2.01-31.78-5.88-45.97-14.41-35.6-21.42-61.59-52.41-85.41-85.55-17.99-25.03-34.9-50.78-50.16-77.55-9.67-16.96-18.62-34.33-27.91-51.51-8.79-16.27-17.6-32.54-26.4-48.81,3.35.03,6.64.38,9.98.81,15.54,2.02,31.04,4.23,46.49,6.88,17.43,2.99,35.04,5.01,52.47,8.02,4.59.79,8.45,1.05,12.21-1.78Z"/>
  <path class="cls-1" d="m355.28,247.49c1.98-9.91,9.69-16.23,15.61-23.34,18.12-21.77,36.26-43.52,53.13-66.27,3.33-4.49,7.42-6.4,12.19-7.94,7.77.19,15.55.38,23.32.57,1.13,2.93,3.7,2.32,5.94,2.32,9.03,0,18.06-.08,27.09-.13,22.86,1.16,44.71,5.79,65.04,17.04,16.02,8.86,25.96,22.18,32.51,38.84,7.9,20.11,9.96,41.26,11.81,62.44,3.03,34.63,3.72,69.35,3.22,104.1-.21,14.9-10.23,24.93-25.17,25.01-17.92.09-35.38-3.67-52.7-7.41-16.38-3.53-25.29-16.14-27.02-34.33-1.62-16.97-2.34-33.99-3.36-50.99-.69-11.42-.52-23.14-4.19-34.28-5.07-15.38-10.72-19.67-26.86-20.26-3.12-.11-6.24-.12-9.36-.17-3.41-5.14-7.89-2.65-12.16-1.7-3.68-.16-7.36-.31-11.03-.46-5.42-4.24-11.29-2.35-17.1-1.27-20.3-.59-40.6-1.18-60.9-1.77Z"/>
  <path class="cls-1" d="m612.71,764.43c4.21,5.08,1.97,8.82-1.73,13.33-20.19,24.56-40.09,49.37-59.91,74.23-2.35,2.95-4.98,6.07-5.49,10.16-13-.38-26.01-.76-39.01-1.14-7.67-3.07-15.43-2.35-23.21-.56-1.61-.04-3.21-.08-4.82-.12-1.95-4.01-4.74-3.15-7.7-1.33-1.05-.21-2.1-.43-3.15-.64-2.11-3.22-4.86-2.58-7.72-1.25-1.07-.15-2.15-.29-3.22-.43-1.29-2.26-2.81-2.78-4.67-.59-10.69-3.35-21.87-5.16-31.76-10.95-17.37-10.18-29.88-24.39-36.66-43.43-7.03-19.74-9.94-40.2-11.72-61.05-2.53-29.57-.71-59.15-1.77-88.71-.21-5.95-1.01-11.84-.49-17.88,1.32-15.31,13.22-23.5,25.64-21.73,19.53,2.78,39.13,5.12,58.19,10.6,12.19,3.5,18.41,12.07,19.69,23.84,1.67,15.36,3.15,30.75,4,46.22.89,16.38.78,33.01,5.8,49.01,2.68,8.57,11.83,16.78,20.61,17.32,24.46,1.48,48.92,2.92,73.38,4.38,1.93,2.52,3.98,2.41,6.12.27,9.86.15,19.72.31,29.59.46Z"/>
  <path class="cls-1" d="m327.68,746.62c-3.76,2.83-7.62,2.57-12.21,1.78-17.43-3.02-35.03-5.03-52.47-8.02-15.45-2.65-30.95-4.86-46.49-6.88-3.34-.43-6.63-.78-9.98-.81-14.87-27.99-31.35-55.17-41.3-85.57-4.61-14.08-4.72-28.37-3.86-42.83,1.46-.87,1.38-1.75.01-2.64,6.01-31.75,28.72-50.69,52.45-69.07,12.35-9.56,25.46-18.31,38.52-26.39,20.94-12.96,42.05-25.98,63.99-37.35,12.83-6.65,29.33-.21,34.75,13.23,5.53,13.71,10.77,27.54,15.76,41.45,7.87,21.89.76,35.33-16.42,46.76-19.65,13.06-39.49,25.89-58.5,39.84-8.64,6.34-18.53,12.98-18.2,26.19.14,5.64,2.68,10.49,4.94,15.29,14.14,29.9,29.27,59.31,44.98,88.42,1.22,2.27,2.68,4.41,4.03,6.61Z"/>
  <path class="cls-1" d="m646.49,263.91c8.61-3.29,16.72,1.41,25.13,1.78,9.71.42,19.31,3.1,28.98,4.64,16.3,2.59,32.56,5.5,48.95,7.34,6.21.7,11.98,3.37,18.27,3.19,10.49,17.46,20.91,34.98,29.23,53.61,5.88,13.17,11.52,26.42,14.4,40.74,6.77,33.75-1.58,62.84-27.47,85.61-22.21,19.53-47.25,35.34-72.51,50.68-16.26,9.87-32.1,20.51-48.72,29.71-16.92,9.37-29.1,7.91-38.28-10.2-8.25-16.27-14.35-33.55-19.15-51.14-3.85-14.1,2.64-26.6,17.23-36.5,19.59-13.31,38.81-27.15,58.84-39.83,6.39-4.04,12.26-8.93,15.98-16.22,7.52-14.76-.65-26.48-6.87-38.33-9.34-17.81-16.84-36.53-27.29-53.81-6.11-10.1-11.17-20.83-16.71-31.27Z"/>
  <path class="cls-1" d="m770.99,531.17c4.89-.76,6.26,2.94,7.6,6.29,8.12,20.22,16.12,40.47,24.17,60.72,5.65,14.21,11.3,28.41,16.96,42.62-7.81,16.61-18.39,31.57-28.34,46.89-11.96,18.42-26.35,34.94-45.17,46.22-16.1,9.65-34.16,13.8-53.46,10.58-30.17-5.04-56.52-19.27-82.95-33.42-21.55-11.54-43.23-22.85-64.53-34.81-13.29-7.47-24.98-23.66-9.6-40.72,8.51-9.44,15.9-19.89,23.97-29.74,4.12-5.02,8.31-10.04,13.86-13.64,7.78-5.04,16.15-6.61,25-3.54,15.6,5.41,30.25,12.93,45.2,19.86,15.14,7.03,28.99,17.04,45.86,20.37,9.46,1.87,17.57-.83,22.87-7.95,17.35-23.33,33.59-47.45,48.14-72.67,3.33-5.77,6.95-11.37,10.43-17.06Z"/>
  <path class="cls-1" d="m203.86,480c-2.7-.64-4.27-2.1-5.37-4.92-7.5-19.32-15.28-38.53-22.93-57.79-5.64-14.2-11.2-28.43-16.82-42.64-.77-1.94-1.69-3.84-3.92-4.57,15.46-27.02,31.19-53.83,53.61-75.98,24.2-23.92,52.55-32.23,85.63-23.5,13.91,3.67,26.9,9.79,40.11,15.33,2.85,1.19,5.76,2.24,8.64,3.36,1.1,2.89,3.21,3.82,6.14,3.16,4.2,2.1,8.41,4.19,12.61,6.28.12,1.47.87,2.29,2.39,2.35,23.6,12.66,47.54,24.73,70.64,38.25,11.27,6.6,16.42,19.88,7.8,32.8-12.3,18.46-25.21,36.87-43.74,50.09-3.03.81-6.5.35-8.88,3.06-2.84-.06-5.67-.13-8.5-.19-1.13-1.86-2.72-1.67-4.42-1-13.01-2.07-23.88-9.31-35.51-14.71-2.79-1.3-5.55-2.66-8.32-3.98-.02-.37-.2-.64-.55-.79-4.49-2.34-8.98-4.68-13.47-7.02-.43-1.67-1.46-2.32-3.15-1.81-8.65-3.34-17.31-6.63-25.94-10.02-12.72-4.99-25.64,1.18-32.35,13.29-5.4,9.74-13.49,17.93-19.65,27.3-11.63,17.7-22.73,35.74-34.04,53.64Z"/>
  <path class="cls-2" d="m492.56,152.7c-9.03.05-18.06.13-27.09.13-2.23,0-4.81.62-5.94-2.32,9.49-1.3,19-.34,28.5-.21,1.85.02,3.57.56,4.52,2.4Z"/>
  <path class="cls-2" d="m483.36,860.44c7.79-1.79,15.54-2.5,23.21.56-7.77,1.26-15.55,2.65-23.21-.56Z"/>
  <path class="cls-2" d="m416.18,249.26c5.81-1.08,11.69-2.97,17.1,1.27-5.77.55-11.59,1.72-17.1-1.27Z"/>
  <path class="cls-2" d="m444.31,250.99c4.27-.95,8.75-3.44,12.16,1.7-4.16.17-8.41,1.05-12.16-1.7Z"/>
  <path class="cls-2" d="m389.76,425.28c2.38-2.71,5.85-2.25,8.88-3.06-2.28,2.99-5.29,3.88-8.88,3.06Z"/>
  <path class="cls-2" d="m459.98,857.1c2.86-1.33,5.6-1.97,7.72,1.25-2.75.69-5.52,1.5-7.72-1.25Z"/>
  <path class="cls-2" d="m470.84,858.99c2.96-1.82,5.75-2.68,7.7,1.33-2.7.33-5.58,1.7-7.7-1.33Z"/>
  <path class="cls-2" d="m583.12,763.96c-2.14,2.14-4.19,2.25-6.12-.27,2.11-1.57,4.16-1.64,6.12.27Z"/>
  <path class="cls-2" d="m348.94,292.45c-2.93.66-5.04-.27-6.14-3.16,2.58.02,4.62,1.1,6.14,3.16Z"/>
  <path class="cls-2" d="m376.83,424.09c1.7-.67,3.3-.86,4.42,1-1.9,1.54-3.3.89-4.42-1Z"/>
  <path class="cls-2" d="m452.09,856.08c1.86-2.18,3.38-1.66,4.67.59-1.7.96-3.28.94-4.67-.59Z"/>
  <path class="cls-2" d="m161.38,601.64c1.37.89,1.45,1.77-.01,2.64-1.51-.89-1.13-1.77.01-2.64Z"/>
  <path class="cls-2" d="m315.84,395.77c1.69-.51,2.72.14,3.15,1.81-1.66.44-2.59-.36-3.15-1.81Z"/>
  <path class="cls-2" d="m363.94,301.08c-1.51-.06-2.27-.89-2.39-2.35,1.87-.3,2.35.81,2.39,2.35Z"/>
  <path class="cls-2" d="m332.46,404.61c.35.15.53.42.55.79,0,0-.57-.21-.57-.21l.02-.58Z"/>
</svg>